# xmcd
#
# Track frame offsets:
# 182
# 17685
# 32545
# 49627
# 69285
# 90697
# 109300
# 123402
# 138712
# 152407
# 163265
# 179312
# 194850
# 204602
# 218197
# 234177
# 249555
# 262327
# 280140
# 298272
# 314087
#
# Disc length: 4355 seconds
#
#
# Revision: 0
# Processed by: cddbd v1.5.1PL2 Copyright (c) Steve Scherf et al.
# Submitted via: FreeRIP 2.944 
#
DISCID=46110115
DTITLE=Renato Teixeira e Pena Branca and Xavantinho - Ao Vivo em Tatuí
DYEAR=1992
DGENRE=Moda de Viola
TTITLE0=Amanheceu Peguei a Viola
TTITLE1=Chalana
TTITLE2=Rio de Lágrimas
TTITLE3=Raízes
TTITLE4=Romaria
TTITLE5=O Cio da Terra
TTITLE6=Gente Que Vem de Lisboa - Peixinhos do Mar
TTITLE7=Vide Vida Marvada
TTITLE8=O Violeiro Toca
TTITLE9=Meu Veneno
TTITLE10=Amora
TTITLE11=Tocando em Frente
TTITLE12=Canto do Povo de Um Lugar
TTITLE13=Jardim da Fantasia
TTITLE14=Vaca Estrela e Boi Fubá
TTITLE15=Cuitelinho
TTITLE16=Quebra de Milho
TTITLE17=Chuá Chuá
TTITLE18=Rapaz Caipira
TTITLE19=De Papo Pro Á
TTITLE20=Calix Bento
EXTD=
EXTT0=
EXTT1=
EXTT2=
EXTT3=
EXTT4=
EXTT5=
EXTT6=
EXTT7=
EXTT8=
EXTT9=
EXTT10=
EXTT11=
EXTT12=
EXTT13=
EXTT14=
EXTT15=
EXTT16=
EXTT17=
EXTT18=
EXTT19=
EXTT20=
PLAYORDER=
